<svg version="1.0" xmlns="http://www.w3.org/2000/svg" width="1365.333" height="1365.333" viewBox="0 0 1024 1024"><path d="M546.5 196.5c-7 2.5-10.6 9.3-8.5 16.4.5 1.8 2.6 5.8 4.6 8.7s3.4 5.9 3.1 6.8c-.3.8-2 1.7-3.8 2.1-7.9 1.8-11.7 4.3-18.3 12.3-5.8 7-7.8 8.6-15.4 12.5-4.8 2.5-17.2 8-27.7 12.2-21.1 8.5-26.4 11.2-29.4 15.1-5.2 6.6-3.4 6.1 39.8-10.7 40.2-15.7 45.3-17.9 52.9-23.1l4.3-2.9 3.1 2.6c5.1 4.3 5.7 4.6 56.8 25.2 23.1 9.3 38 14.5 38 13.3 0-1.9-6-7.6-10.2-9.8-2.4-1.2-13.6-6-24.7-10.6-26.6-11.2-29.2-12.7-37.4-22.1-7.9-9.1-11.7-12.1-16.9-13.6-3.1-.8-3.8-1.4-3.8-3.4 0-3.5-1.8-7.6-4.5-10.5-4.7-4.9-5.1-10.9-1-13.6 3.5-2.3 7.2-.8 9.6 3.7 1.4 2.9 2.6 3.9 4.3 3.9 3.4 0 3.9-2.5 1.7-7.5-2.9-6.6-9.7-9.4-16.6-7m61 94c-21.9 4.8-46.5 21.3-58.8 39.5-1.7 2.5-3.1 4.6-3.3 4.8-.1.2-4.9-4.3-10.6-10.1-11.6-11.7-19.5-17.6-31.4-23.6-13-6.5-23.6-9.1-36.3-9-18.1.1-23.8 3.5-14.2 8.3 14.9 7.6 28.5 27.2 37.1 53.6 4.9 14.8 6.9 24.8 7.9 39.6 2.4 35.9-6.6 68.4-26 92.6-12.7 16-40.1 35.4-63.9 45.2-17.5 7.1-29.9 9.8-67.3 14.2-15.3 1.8-19.6 1.4-6.5-.6 12.3-1.9 26.9-4.7 27.6-5.4.3-.4-.8-.4-2.4-.1-1.6.2-7.6.9-13.4 1.5-26.9 2.7-49.8 7-63 11.8-14.5 5.2-27.6 17-34.2 30.8-4.3 8.9-4.3 8.9-4.2 19.9 0 9.8.4 11.8 3.1 18.6 1.6 4.2 5.4 11 8.3 15.3 5.4 7.9 18.5 20.6 27.1 26.4 18 12.2 49.5 22.6 80.2 26.7 22.3 2.9 65.2 1.7 88.2-2.5 54.1-9.9 99.4-32.1 129.5-63.6 14.7-15.3 22.3-26.9 28.9-43.7 6-15.5 8.3-27.9 9-50.2l.7-19 3.1 6.5c7.8 16.4 11.3 33.6 11.3 55.4 0 23.3-3.5 40.2-12 58.1-3.9 8-3.9 8-.9 4.5 4.5-5.2 13.6-24.4 16-33.5 3.8-14.3 3.7-48.7-.2-61.1-.5-1.8-1.4-5.5-1.8-8.4-1.1-6.9.1-5.5 7.4 8.5 9.7 18.5 10.3 19.8 13.1 28 2.5 7.2 2.8 9.4 2.8 22.2.1 7.8.4 13.9.8 13.5 1.4-1.4 3.8-12.8 3.8-18.2 0-8-3.3-22.5-6.9-30.7-3.5-8.1-3.7-9.1-1.5-7.2 2.8 2.3 19.8 25 24.7 32.9 13.1 21.2 17.8 42.4 13.1 59-3.2 11.5-14.6 21.8-29.4 26.4-7.7 2.5-26.6 5.6-45 7.6-10.7 1.1-15.9 1.9-31 4.6-9.7 1.8-30.6 9.1-39.4 13.7-5.8 3.1-18.5 14.1-17.5 15.1.3.3 3.9-.9 8-2.6s10.3-3.9 13.9-4.9c4.5-1.2 5.6-1.7 3.6-1.8-3.7-.1-3.1-.7 1.4-1.6 1.9-.3 5.3-1 7.5-1.5 10.3-2.3 15.6-3 24.8-3.1 8.4-.1 10.2.2 11.6 1.7 1.5 1.7 1.5 1.7-.1.5-1.5-1.1-1.8-1.1-1.8.3 0 1.8 3.5 2.2 4.6.5.5-.8.8-.8 1.3 0 1.2 1.8 12.1 2.6 34.6 2.5 22.6-.1 30.5-1.1 38.7-4.8 2.1-.9 4.8-1.6 6-1.6 1.3 0 3.4-.9 4.8-2s3-2 3.6-2c2.7 0 16.4-10.2 22.1-16.4 5.4-5.9 11.4-16.1 16.1-27.6 1-2.4 1.1-2.4 1.1 1.1.2 8.1-6.2 23-13.5 31.5-18.5 21.8-51.7 33.4-99.9 35.1-17.7.6-17.9.6-13 2.1 7.4 2.1 39.6 1.1 52.8-1.7 25.3-5.5 46.7-16.6 59.8-31 10.7-11.7 17.9-30 17.9-45.1 0-16.8-8.1-36.6-21.1-51.6-2.2-2.5-3.8-4.8-3.6-5.1.9-.8 29.4 15 40.6 22.5 17.1 11.4 30.9 25.9 38.1 40.2 5.3 10.4 7.1 17.9 7.9 32.5.4 7.7.6 16.4.5 19.2-.2 2.9.1 5.3.5 5.3 1.1 0 4.6-8.7 6.8-17 2.5-9.3 2.3-27.9-.5-38.1-3.6-13.3-10.2-24.8-20.6-35.8-6.1-6.3-15.4-14.3-12.6-10.7 1.5 1.9 1.4 1.9-1.2.2s-4.1-3.5-1.6-2c.7.4.8.3.4-.5-.4-.6-1.1-.9-1.6-.6-.9.5-9-4.2-9-5.2 0-.3 1.2.2 2.6 1.2 1.5.9 2.4 1.3 2 .7-1.4-2.3-12.8-8.9-36.2-21-37.9-19.5-55.9-31.4-75-49.4-28.8-27.4-50.1-64-54.5-94-1.8-12.7-.6-38.9 2.4-51.8 4.5-19 12.7-38.4 22-51.9 6.8-9.9 24.6-26.1 28.6-26.1 2.6 0 .7-1.9-3.6-3.8-9.9-4.2-27.5-5.4-39.8-2.7m-119 35.8c4.2 4.5 10.8 12.5 14.7 17.7s9.1 12.2 11.7 15.5c8.9 11.8 17.8 32.3 20 46 1.5 10 .5 8.2-4.4-8-2.8-9.1-16.6-37.8-17.2-35.9-.2.6 1.1 4.6 2.8 9 9.2 23 14.2 57.3 12 83.4-3.2 39-14.2 64.4-38.8 90.1-11 11.4-20.9 19.2-34.2 26.9-5 2.9-9.1 5.4-9.1 5.6 0 1.3 20.7-7.4 30.5-12.9 29.9-16.9 54.5-48.9 67-87 5.6-17.1 7.6-28.4 8.1-45.7.3-8.5.8-16.2 1.1-17 2.5-7.1 3.1 30.5.8 46.9-5.9 40-22.2 72.4-48.1 95.5-4.6 4.2-8.5 7.9-8.6 8.3-.4 1.2-8.7 7.6-17 13.1-26.6 17.6-57.9 25.1-99.5 24-10.1-.3-18.2-.4-18-.2s5.2 1.1 11.3 2.1c12 1.8 45.6 2.4 57.9 1 10.4-1.3 26.7-4.6 28.1-5.8.7-.6 1.8-.8 2.4-.4.5.3 1 .1 1-.5 0-.7.7-1 1.5-.6.8.3 1.5.1 1.5-.5s.4-.8.9-.4c.5.3 3.1-.2 5.8-1 2.6-.8 7.2-2.2 10.1-3.2 2.8-.9 5.2-2.1 5.2-2.6 0-.6.3-.7.6-.4 1 .9 19.6-8.8 28.3-14.9 8.7-6 18.2-14.1 23.4-19.9 2-2.2 4.8-5.4 6.4-7.2 16.6-18.7 30-66.6 27.6-99.1-.7-9.3 1-9.6 3-.5 5.7 25.3 4.5 54-3 76.8-6.9 21.2-17.9 39-34.1 55.3-23.9 24-53.1 39.2-90.2 47-4.4 1-4.4 1-1 1.1 6.3.2 24.8-3.8 39.5-8.6 9.8-3.1 28-11.8 35.7-17 27.8-18.6 46.1-44.9 55.2-79.7 3.5-13.3 4.9-23.6 4.8-36.8-.1-11.1.9-15.6 2.1-10.5 1.6 6.3 2.9 27.6 2.4 39.3-1.5 34.2-12 59.8-35 85.7-13.7 15.4-37.2 31.3-59.2 40-39.5 15.7-95.6 18.6-140.7 7.1-42.5-10.7-74.9-34.3-77.5-56.2-2.3-20.1 17-28.1 64.7-26.6 32.6 1 52.3-1.6 74.9-9.6 11.4-4.1 27.3-11.6 27.9-13.1.2-.5.8-.7 1.3-.3.5.3.9.1.9-.4s1.4-1.5 3-2.2c1.7-.7 3-1.6 3-2.1s.6-.9 1.3-.9c2.9 0 22.3-17.9 32.4-30 13.3-15.9 23.7-37.2 28-57.2 2.4-11.4 2.4-39.5 0-52.8-5-27.5-16.5-53-33.6-74.4-3.9-4.9-7.1-9.1-7.1-9.3 0-1.2 8.7 6.7 15.5 14M616 314.9c0 .5-2.8 2.9-6.2 5.4-9.5 6.8-28.7 26.9-28.8 30.1 0 .4 4.2-3.2 9.3-8 5.2-4.9 10.8-9.7 12.6-10.8l3.3-1.8-2.4 3.5c-1.3 1.9-4.2 6.1-6.4 9.3-4.8 6.9-9.7 16.3-13 25.2-3.3 8.6-3 9.9.7 2.7 1.6-3.3 3.5-6.5 4.1-7 1.3-1.2 1.1 0-3 16-1.7 6.6-3.3 13.7-3.7 15.7-.5 3.6-2.5 5.4-2.5 2.5 0-2.1-11-23.2-16.5-31.7-2.7-4.1-9.4-13.3-14.9-20.3-15.3-19.5-15.5-19.7-8.2-12.7 3.7 3.6 9 9.4 11.9 13 6.3 8.1 7.3 9.1 5.8 6.2-1.1-2-.7-2.8 3.1-7.3 9.1-10.7 25.9-20.9 45.8-27.9 10-3.5 9-3.2 9-2.1M611.6 518c-.4 9.6-1.3 21.5-2.2 26.5-1.7 10.1-5.1 22.5-6.6 24-.6.6-.7.3-.3-1 .6-1.9.6-1.9-.5-.2-.6 1-.9 2.5-.6 3.3.4 1 .2 1.2-.6.8-.8-.5-.9 0-.5 1.5.3 1.3.3 2 0 1.7-.4-.3-2.8 3.4-5.4 8.3-5.6 10.8-11.4 18.9-15.9 22.8l-3.4 2.8 2.9-5c1.6-2.8 3.6-6.1 4.6-7.5 5.7-8.5 15.6-32.3 19.9-48.3 3.2-11.6 6.9-36.5 6.3-41.9-.3-2.6-.2-5.9.2-7.5l.7-2.8 1 2.5c.6 1.6.8 9.1.4 20m-162.2-5.4c-5.1 6.2-20.7 18.6-30.2 24.1-9.3 5.2-20.9 9.8-31.7 12.5-4.4 1-8.7 2.2-9.5 2.5-.8.4-1.8.5-2.2.5-.5-.1-.8.2-.8.7 0 .4-2.6.8-5.7.7-3.2 0-13.9.5-23.8 1.1-9.9.7-22.4 1.4-27.7 1.5-5.4.1-9.8.6-9.8 1s-.6.5-1.3.3c-.7-.3-4.2-.1-7.7.4-3.6.5-6.7.7-6.8.6-.2-.2 1.8-1.5 4.5-2.8 8.2-4.1 26.4-7.4 48.8-8.8 18.5-1.1 31.3-2.9 44.1-6.4 18.9-5.1 40.6-15.5 54.4-25.9 4.7-3.6 8.6-6.5 8.8-6.5.2-.1-1.4 2-3.4 4.5m-125.1 35.1c-.7.2-2.1.2-3 0-1-.3-.4-.5 1.2-.5 1.7 0 2.4.2 1.8.5M275 620.5c10.5 12.9 20.2 20.3 38 29.2 6.8 3.5 13.1 6.3 14 6.3.8.1 3.1.9 5 2 3.3 1.8 3.3 1.9 1 2-7 .1-29-9.7-41.9-18.7-3.5-2.4-6.6-4.2-6.8-3.9-.8.8-3.5-1.4-7.9-6.4-2.1-2.5-3.1-3.9-2.1-3.1 2.8 2.2 2-.2-1.6-5-4-5.2-6.2-9.3-7.1-13.4l-.7-3 2.2 3.5c1.2 1.9 4.7 6.6 7.9 10.5"/><path d="M491.6 509.1c-6.9 10.6-16.6 20.2-35.2 34.7-2.3 1.8-2 1.7 1.6-.4 8.5-5 17.6-12.3 22.7-18.1 5.3-6.1 15.8-21.2 15.1-21.8-.2-.2-2.1 2.3-4.2 5.6m-48.8 119.6c.7.3 1.6.2 1.9-.1.4-.3-.2-.6-1.3-.5-1.1 0-1.4.3-.6.6M279.5 633c2.1 2.2 4.1 4 4.4 4s-1.3-1.8-3.4-4-4.1-4-4.4-4 1.3 1.8 3.4 4m47-161.9c-13.8 2-32.2 9.2-44.8 17.6-11.8 7.8-30.4 26.9-28.3 29 .8.8 3.5-2.7 3.6-4.7 0-1.3.1-1.3 1 0 .8 1.2 1 1.1 1-.6 0-1.2 2.2-4.2 5.4-7.3 7.3-6.8 8.2-6.6 1.2.4-3.1 3-5.6 6-5.6 6.6 0 1.3 2.5-.4 5.2-3.6.9-1.1 2-1.7 2.4-1.3s-.8 2.5-2.7 4.6-4 4.7-4.6 5.8c-.7 1-2.4 3.6-3.8 5.7s-2.5 4.4-2.5 5.2-.4 1.6-.9 1.9c-1.4.9-6.5 14.5-5.8 15.2.4.4 1.5-1.4 2.6-4 2-4.4 3.6-6.4 2.5-2.9-.4 1 .3.3 1.5-1.5s2.1-3.7 2.1-4.2c0-1.2 4.8-6 6.1-6 .6 0 .7-.5.4-1-.3-.6.1-1 .9-1 2.6 0 2.5 1.5-.3 4.7-6 6.9-12.2 23.1-12 31.3.1 3 .3 2.7 1.5-2.5 2.8-11.4 7.7-19.5 17.9-29.4 14.3-13.8 28.7-22 46.9-26.6 17.2-4.4 31.2-3.4 46.8 3.1 3.2 1.3 7.5 2.4 9.7 2.4 3.4 0 4.2-.5 6-3.4 5.5-8.8-.2-21.1-12.7-27.5-11.1-5.7-26.9-8-40.7-6M271 504.4c0 .2-.7.7-1.6 1-.8.3-1.2.2-.9-.4.6-1 2.5-1.4 2.5-.6"/><path d="M257.9 531.7c-1.3 1.6-1.2 1.7.4.4s2.1-2.1 1.3-2.1c-.2 0-1 .8-1.7 1.7m338.9 180c.6.2 1.8.2 2.5 0 .6-.3.1-.5-1.3-.5s-1.9.2-1.2.5"/></svg>